<svg version="1.1" id="Layer_1" xmlns="http://www.w3.org/2000/svg" xmlns:xlink="http://www.w3.org/1999/xlink" x="0px" y="0px"
	 width="100%" viewBox="0 0 500 500" enable-background="new 0 0 500 500" xml:space="preserve">
<path fill="#000000" opacity="1.000000" stroke="none" 
	d="
M468.000000,501.000000 
	C312.000031,501.000000 156.500076,501.000000 1.000056,501.000000 
	C1.000000,417.666718 1.000000,334.333435 1.000000,251.000168 
	C1.000000,167.666855 1.000000,84.333542 1.000000,1.000173 
	C167.666550,1.000115 334.333099,1.000115 500.999756,1.000058 
	C500.999817,167.666519 500.999817,334.333038 500.999908,500.999756 
	C490.166656,501.000000 479.333344,501.000000 468.000000,501.000000 
M190.266205,252.881058 
	C190.968658,254.873154 191.671097,256.865234 192.324890,258.719360 
	C195.062088,258.719360 197.453400,258.719360 200.203568,258.719360 
	C196.037689,246.616699 192.158478,234.828751 187.749725,223.242294 
	C187.240555,221.904160 183.797760,221.161392 181.694183,221.116196 
	C180.020538,221.080261 177.253815,222.135849 176.788757,223.383759 
	C172.458740,235.002548 168.521942,246.767868 164.316971,258.936890 
	C167.980728,258.459290 172.366302,261.239746 173.252274,255.292542 
	C173.894150,250.983948 176.360825,249.428253 180.491425,250.188766 
	C183.671173,250.774185 186.841187,251.412628 190.266205,252.881058 
M297.397308,246.616577 
	C297.450989,245.289398 297.440186,243.955872 297.570496,242.636261 
	C297.957397,238.718369 299.615479,235.890167 304.040253,235.989716 
	C308.973633,236.100693 308.645233,239.885315 308.703918,243.187531 
	C308.795258,248.325195 308.728088,253.465683 308.728088,258.772186 
	C311.239777,258.772186 313.461243,258.772186 315.924713,258.772186 
	C315.924713,251.912155 316.156647,245.281662 315.857513,238.675217 
	C315.575378,232.444290 311.838409,229.211349 305.660797,229.907059 
	C302.920868,230.215607 300.321899,231.775543 297.297119,232.902222 
	C297.297119,228.272369 297.297119,223.679947 297.297119,219.055542 
	C294.661133,219.055542 292.429749,219.055542 290.054779,219.055542 
	C290.054779,231.991302 290.051605,244.618668 290.067322,257.246002 
	C290.067932,257.712341 290.253204,258.178406 290.375275,258.752045 
	C292.674072,258.752045 294.889557,258.752045 297.397247,258.752045 
	C297.397247,254.850586 297.397247,251.210312 297.397308,246.616577 
M227.873398,243.768188 
	C228.090393,252.795761 231.092911,257.435608 237.755524,259.039215 
	C245.374466,260.873016 250.514542,258.870789 253.844635,252.620148 
	C252.362701,251.659225 250.865494,250.688400 249.111816,249.551285 
	C246.436981,253.220810 242.787796,254.361313 239.005234,252.527527 
	C237.256973,251.679962 236.343658,249.110138 234.289856,246.266083 
	C241.937988,246.266083 247.874939,246.266083 253.731110,246.266083 
	C255.640686,234.464584 249.762360,228.244751 238.789825,229.981903 
	C232.497452,230.978104 228.836288,235.350876 227.873398,243.768188 
M212.563110,259.011902 
	C213.966919,258.903442 215.370743,258.794952 217.163513,258.656403 
	C217.163513,247.942429 217.163513,237.711838 217.163513,227.171799 
	C220.894699,227.171799 224.196121,227.171799 227.521881,227.171799 
	C227.521881,224.960236 227.521881,223.081909 227.521881,221.267975 
	C217.586716,221.267975 208.009857,221.267975 198.420517,221.267975 
	C198.420517,223.348389 198.420517,225.107544 198.420517,227.399124 
	C202.055237,227.399124 205.453156,227.399124 209.158127,227.399124 
	C209.158127,237.065720 209.064240,246.202454 209.268341,255.332504 
	C209.296127,256.575134 210.813797,257.784454 212.563110,259.011902 
M264.564270,257.023315 
	C273.916443,262.098602 282.110992,259.797424 284.894928,251.093796 
	C283.262115,250.214233 281.592651,249.314941 279.988373,248.450745 
	C276.526367,253.370621 272.589844,254.559814 269.321472,252.042511 
	C266.281647,249.701218 265.528046,241.320358 268.337494,238.236893 
	C269.352448,237.122986 271.292999,235.905121 272.539429,236.145248 
	C275.191650,236.656219 277.665802,238.091202 280.687744,239.344345 
	C281.656891,238.578735 283.160767,237.390701 284.677765,236.192307 
	C281.792908,230.125381 276.799500,229.522537 271.442871,229.866806 
	C265.924316,230.221481 261.894257,233.008759 260.148254,238.220871 
	C257.894104,244.949890 258.428589,251.356491 264.564270,257.023315 
z"/>
<path fill="#C669E0" opacity="1.000000" stroke="none" 
	d="
M190.140869,252.454285 
	C186.841187,251.412628 183.671173,250.774185 180.491425,250.188766 
	C176.360825,249.428253 173.894150,250.983948 173.252274,255.292542 
	C172.366302,261.239746 167.980728,258.459290 164.316971,258.936890 
	C168.521942,246.767868 172.458740,235.002548 176.788757,223.383759 
	C177.253815,222.135849 180.020538,221.080261 181.694183,221.116196 
	C183.797760,221.161392 187.240555,221.904160 187.749725,223.242294 
	C192.158478,234.828751 196.037689,246.616699 200.203568,258.719360 
	C197.453400,258.719360 195.062088,258.719360 192.324890,258.719360 
	C191.671097,256.865234 190.968658,254.873154 190.140869,252.454285 
M181.384018,230.338516 
	C179.979309,234.744446 178.574600,239.150391 177.128311,243.686737 
	C180.588470,243.686737 183.688278,243.686737 187.702606,243.686737 
	C185.613495,238.720993 183.734512,234.254715 181.384018,230.338516 
z"/>
<path fill="#F7F7F7" opacity="1.000000" stroke="none" 
	d="
M297.397278,247.093307 
	C297.397247,251.210312 297.397247,254.850586 297.397247,258.752045 
	C294.889557,258.752045 292.674072,258.752045 290.375275,258.752045 
	C290.253204,258.178406 290.067932,257.712341 290.067322,257.246002 
	C290.051605,244.618668 290.054779,231.991302 290.054779,219.055542 
	C292.429749,219.055542 294.661133,219.055542 297.297119,219.055542 
	C297.297119,223.679947 297.297119,228.272369 297.297119,232.902222 
	C300.321899,231.775543 302.920868,230.215607 305.660797,229.907059 
	C311.838409,229.211349 315.575378,232.444290 315.857513,238.675217 
	C316.156647,245.281662 315.924713,251.912155 315.924713,258.772186 
	C313.461243,258.772186 311.239777,258.772186 308.728088,258.772186 
	C308.728088,253.465683 308.795258,248.325195 308.703918,243.187531 
	C308.645233,239.885315 308.973633,236.100693 304.040253,235.989716 
	C299.615479,235.890167 297.957397,238.718369 297.570496,242.636261 
	C297.440186,243.955872 297.450989,245.289398 297.397278,247.093307 
z"/>
<path fill="#F7F7F7" opacity="1.000000" stroke="none" 
	d="
M227.890579,243.373627 
	C228.836288,235.350876 232.497452,230.978104 238.789825,229.981903 
	C249.762360,228.244751 255.640686,234.464584 253.731110,246.266083 
	C247.874939,246.266083 241.937988,246.266083 234.289856,246.266083 
	C236.343658,249.110138 237.256973,251.679962 239.005234,252.527527 
	C242.787796,254.361313 246.436981,253.220810 249.111816,249.551285 
	C250.865494,250.688400 252.362701,251.659225 253.844635,252.620148 
	C250.514542,258.870789 245.374466,260.873016 237.755524,259.039215 
	C231.092911,257.435608 228.090393,252.795761 227.890579,243.373627 
M239.466934,235.853119 
	C238.062271,237.358002 236.657623,238.862869 234.470718,241.205811 
	C239.680267,241.205811 243.310944,241.205811 246.987717,241.205811 
	C246.166565,235.978897 245.662369,235.591431 239.466934,235.853119 
z"/>
<path fill="#C669E0" opacity="1.000000" stroke="none" 
	d="
M212.102371,259.010559 
	C210.813797,257.784454 209.296127,256.575134 209.268341,255.332504 
	C209.064240,246.202454 209.158127,237.065720 209.158127,227.399124 
	C205.453156,227.399124 202.055237,227.399124 198.420517,227.399124 
	C198.420517,225.107544 198.420517,223.348389 198.420517,221.267975 
	C208.009857,221.267975 217.586716,221.267975 227.521881,221.267975 
	C227.521881,223.081909 227.521881,224.960236 227.521881,227.171799 
	C224.196121,227.171799 220.894699,227.171799 217.163513,227.171799 
	C217.163513,237.711838 217.163513,247.942429 217.163513,258.656403 
	C215.370743,258.794952 213.966919,258.903442 212.102371,259.010559 
z"/>
<path fill="#F7F7F7" opacity="1.000000" stroke="none" 
	d="
M264.266693,256.806427 
	C258.428589,251.356491 257.894104,244.949890 260.148254,238.220871 
	C261.894257,233.008759 265.924316,230.221481 271.442871,229.866806 
	C276.799500,229.522537 281.792908,230.125381 284.677765,236.192307 
	C283.160767,237.390701 281.656891,238.578735 280.687744,239.344345 
	C277.665802,238.091202 275.191650,236.656219 272.539429,236.145248 
	C271.292999,235.905121 269.352448,237.122986 268.337494,238.236893 
	C265.528046,241.320358 266.281647,249.701218 269.321472,252.042511 
	C272.589844,254.559814 276.526367,253.370621 279.988373,248.450745 
	C281.592651,249.314941 283.262115,250.214233 284.894928,251.093796 
	C282.110992,259.797424 273.916443,262.098602 264.266693,256.806427 
z"/>
<path fill="#000000" opacity="1.000000" stroke="none" 
	d="
M181.619781,230.063477 
	C183.734512,234.254715 185.613495,238.720993 187.702606,243.686737 
	C183.688278,243.686737 180.588470,243.686737 177.128311,243.686737 
	C178.574600,239.150391 179.979309,234.744446 181.619781,230.063477 
z"/>
<path fill="#000000" opacity="1.000000" stroke="none" 
	d="
M239.821594,235.759277 
	C245.662369,235.591431 246.166565,235.978897 246.987717,241.205811 
	C243.310944,241.205811 239.680267,241.205811 234.470718,241.205811 
	C236.657623,238.862869 238.062271,237.358002 239.821594,235.759277 
z"/>
</svg>