<svg version="1.1" id="Layer_1" xmlns="http://www.w3.org/2000/svg" xmlns:xlink="http://www.w3.org/1999/xlink" x="0px" y="0px"
	 width="100%" viewBox="0 0 1069 714" enable-background="new 0 0 1069 714" xml:space="preserve">
<path fill="#FFFFFF" opacity="1.000000" stroke="none" 
	d="
M768.000000,715.000000 
	C512.000000,715.000000 256.500031,715.000000 1.000034,715.000000 
	C1.000023,477.000031 1.000023,239.000061 1.000011,1.000066 
	C357.333282,1.000044 713.666565,1.000044 1070.000000,1.000022 
	C1070.000000,238.999939 1070.000000,476.999878 1070.000000,714.999878 
	C969.500000,715.000000 869.000000,715.000000 768.000000,715.000000 
M552.500183,389.115784 
	C596.982178,388.760437 641.442871,387.969177 685.727356,383.153412 
	C701.777954,381.407959 716.158936,376.393402 727.076538,363.660126 
	C736.063110,353.179138 739.732483,340.588135 741.020142,327.407074 
	C743.301270,304.058044 745.567322,280.654816 746.354492,257.224396 
	C747.642212,218.894104 746.478638,180.568115 738.887878,142.808243 
	C734.541931,121.189316 721.482117,106.101891 699.808044,101.314781 
	C683.328491,97.674957 666.226440,95.843483 649.332520,95.283882 
	C602.888916,93.745438 556.408691,92.602226 509.943634,92.624634 
	C466.493286,92.645592 423.018555,93.606308 379.775116,98.987732 
	C354.914612,102.081497 336.750336,116.735443 331.363617,141.204590 
	C327.979523,156.576736 325.710815,172.411392 325.074829,188.124893 
	C323.876892,217.721481 323.712524,247.387009 324.091980,277.011414 
	C324.373291,298.975952 326.065765,320.982239 331.777924,342.332611 
	C337.454285,363.549194 351.409912,376.897247 372.994202,381.038940 
	C386.035522,383.541382 399.364502,385.355499 412.619385,385.787750 
	C458.900024,387.297180 505.204651,388.070496 552.500183,389.115784 
M654.864502,452.818878 
	C654.864502,445.034271 654.864502,437.249695 654.864502,429.317535 
	C648.828552,429.317535 642.951843,429.317535 637.209473,429.317535 
	C637.209473,453.679840 637.209473,477.733612 637.209473,502.239227 
	C643.481323,500.785187 651.012390,505.575867 654.468262,496.636597 
	C667.349731,508.626678 681.632690,501.812378 685.409485,491.049438 
	C689.123169,480.466217 689.459045,469.792725 685.162964,459.364319 
	C679.932556,446.667755 666.781067,444.068085 656.854126,453.432892 
	C656.457275,453.807312 655.516602,453.605408 654.864502,452.818878 
M588.818054,609.709351 
	C589.314026,606.773682 589.005615,603.286926 590.532898,601.057861 
	C592.050598,598.842773 595.376709,596.851746 597.981445,596.758301 
	C599.679321,596.697327 602.131470,599.930786 603.099426,602.181519 
	C604.090942,604.486694 603.839294,607.391541 603.862610,610.036255 
	C603.938477,618.622314 603.890991,627.209473 603.890991,635.776245 
	C610.267944,635.776245 616.025452,635.776245 621.968689,635.776245 
	C621.968689,622.923340 622.372620,610.286072 621.835815,597.688843 
	C621.435120,588.285706 614.452820,582.445862 604.996460,581.977539 
	C597.816711,581.621948 591.717407,583.802917 586.983032,589.518005 
	C583.526611,582.524109 579.429932,581.203247 570.440430,583.731995 
	C570.440430,601.011597 570.440430,618.276489 570.440430,635.764771 
	C576.554138,635.764771 582.450195,635.764771 588.806641,635.764771 
	C588.806641,627.236816 588.806641,618.949402 588.818054,609.709351 
M469.900757,452.687164 
	C469.118896,451.434082 468.403229,449.151642 467.544312,449.096375 
	C462.303314,448.759186 457.029785,448.927917 451.827271,448.927917 
	C451.827271,462.180511 451.392395,474.832642 451.970581,487.438324 
	C452.400940,496.821075 458.998871,502.449097 468.390900,502.945648 
	C475.583923,503.325958 481.829071,501.259521 486.662018,494.966156 
	C487.764587,497.623260 488.629761,499.708252 489.477478,501.751190 
	C494.034973,501.751190 498.467743,501.751190 502.921204,501.751190 
	C502.921204,484.086090 502.921204,466.681793 502.921204,449.289001 
	C496.778717,449.289001 490.902069,449.289001 484.149414,449.289001 
	C484.149414,459.959656 484.540405,470.284241 483.995392,480.559174 
	C483.692780,486.263672 480.168060,488.845154 475.552826,488.261292 
	C470.406647,487.610229 470.064545,483.538391 469.997589,479.646332 
	C469.848541,470.983459 469.919495,462.316803 469.900757,452.687164 
M624.167480,477.500061 
	C624.167480,468.073578 624.167480,458.647095 624.167480,449.135315 
	C617.855042,449.135315 612.100098,449.135315 605.920166,449.135315 
	C605.920166,457.451874 606.113403,465.574768 605.831543,473.681183 
	C605.706726,477.268829 605.026733,480.963409 603.856323,484.353119 
	C602.672546,487.781677 599.262817,489.186676 596.101257,487.992981 
	C594.068237,487.225433 592.179871,484.707031 591.335388,482.541107 
	C590.478943,480.344513 590.916992,477.616699 590.907654,475.121094 
	C590.875305,466.512573 590.895203,457.903900 590.895203,449.253357 
	C584.514465,449.253357 578.636719,449.253357 572.846130,449.253357 
	C572.846130,462.212158 572.428650,474.860809 572.985291,487.466461 
	C573.391235,496.658813 579.732422,502.182037 588.900635,502.897888 
	C596.299622,503.475616 602.669250,501.357910 607.663452,495.057404 
	C608.779175,497.670685 609.667175,499.750763 610.510864,501.726868 
	C615.098633,501.726868 619.520752,501.726868 624.167480,501.726868 
	C624.167480,493.785889 624.167480,486.142975 624.167480,477.500061 
M435.786804,589.641602 
	C443.004425,576.331726 453.420654,582.927429 463.327972,585.487793 
	C465.154999,580.753479 466.923401,576.171143 468.784943,571.347351 
	C460.387146,567.337402 451.857025,565.841309 442.893982,566.832520 
	C429.913269,568.268127 421.015930,575.032227 416.752106,587.440002 
	C413.167175,597.872192 413.508820,608.416870 417.112091,618.753235 
	C419.765381,626.364502 425.017090,631.892761 432.648590,634.624084 
	C442.907410,638.295776 453.241516,637.662659 463.378693,633.940735 
	C464.442505,633.550171 465.732819,632.043030 465.801971,630.981262 
	C466.079193,626.725281 465.916534,622.440552 465.916534,618.003845 
	C460.844818,619.304871 456.281342,620.873230 451.587646,621.597290 
	C441.624237,623.134399 434.791504,618.065918 434.077667,608.018860 
	C433.662903,602.180481 434.891174,596.225281 435.786804,589.641602 
M735.408813,502.025879 
	C745.225281,499.573395 745.821106,498.413300 743.438843,486.390381 
	C725.764648,492.572601 716.307678,490.731354 715.201233,480.297791 
	C725.963806,480.297791 736.682678,480.297791 747.317749,480.297791 
	C747.317749,476.043427 747.612061,472.368500 747.263733,468.755554 
	C746.126953,456.964752 739.951477,450.427551 728.347839,448.344543 
	C714.625244,445.881165 702.713318,451.450958 698.541809,462.522827 
	C695.580688,470.382050 695.356628,478.441833 697.894836,486.482788 
	C700.205505,493.803192 704.984924,499.422333 712.414368,500.878723 
	C719.598450,502.286987 727.157715,501.781525 735.408813,502.025879 
M668.491272,614.342896 
	C673.431641,614.342896 678.372070,614.342896 683.385254,614.342896 
	C683.385254,610.299194 683.648132,606.809021 683.338623,603.370483 
	C682.161133,590.288635 674.334351,582.728699 661.512878,582.033813 
	C645.886841,581.186951 635.489624,587.952087 633.211792,601.137085 
	C632.350891,606.120483 632.396179,611.424561 633.007385,616.463806 
	C634.251831,626.722717 641.315430,634.307068 651.565063,635.855530 
	C657.701843,636.782654 664.148621,636.683594 670.339050,635.994629 
	C680.130859,634.904663 680.098083,634.531189 680.050537,625.088196 
	C680.042603,623.520386 679.920715,621.953125 679.886292,621.173462 
	C673.610413,622.108704 667.625427,623.529541 661.595642,623.755493 
	C655.134094,623.997498 651.983337,620.802429 651.128906,614.342896 
	C656.624451,614.342896 662.059570,614.342896 668.491272,614.342896 
M389.033173,484.252106 
	C394.565582,500.096161 408.857697,506.871948 424.972839,501.290771 
	C435.954437,497.487518 441.518433,487.730927 440.977966,473.225616 
	C440.438141,458.738129 430.552704,448.548615 416.519501,448.014832 
	C400.107788,447.390503 389.805420,455.613983 388.271729,471.020599 
	C387.866394,475.092590 388.674866,479.285400 389.033173,484.252106 
M556.726440,624.075989 
	C557.251587,622.681213 557.898132,621.319031 558.282532,619.886475 
	C561.241028,608.861938 560.730957,598.193359 552.599854,589.527161 
	C545.056091,581.487000 535.128662,580.624573 524.869324,582.991028 
	C512.838379,585.766052 506.527832,595.729553 506.895935,610.916077 
	C507.197784,623.369507 513.887939,632.834595 524.535278,635.871887 
	C537.439514,639.553101 549.588074,635.293945 556.726440,624.075989 
M363.034424,435.340057 
	C359.529694,442.859711 356.024963,450.379364 352.112549,458.773743 
	C348.407745,450.733673 345.205811,443.653809 341.857971,436.643646 
	C341.274597,435.422119 340.116974,433.618500 339.155090,433.573608 
	C333.110046,433.291504 327.045349,433.430878 320.260010,433.430878 
	C327.265778,446.661591 333.931000,458.891937 340.192322,471.325684 
	C341.751709,474.422333 342.543121,478.144379 342.747070,481.633911 
	C343.139984,488.355530 342.861633,495.116333 342.861633,501.881256 
	C349.354614,501.881256 355.157959,501.881256 361.475098,501.881256 
	C361.475098,494.794678 361.174042,487.810394 361.597778,480.870331 
	C361.821106,477.213318 362.691803,473.319580 364.339813,470.076172 
	C369.905701,459.121948 375.960693,448.416534 381.796997,437.598969 
	C382.447540,436.393188 382.895081,435.077881 383.613953,433.399780 
	C379.737671,433.399780 376.569794,433.241852 373.424896,433.442749 
	C370.060638,433.657684 366.717957,434.210876 363.034424,435.340057 
M541.427551,502.011566 
	C543.207153,502.011566 544.986694,502.011566 547.233887,502.011566 
	C547.233887,483.997559 547.233887,466.455566 547.233887,448.531616 
	C552.974731,448.531616 558.242859,448.531616 563.684570,448.531616 
	C563.684570,443.397766 563.684570,438.657379 563.684570,433.657532 
	C546.391296,433.657532 529.340515,433.657532 512.305664,433.657532 
	C512.305664,438.766357 512.305664,443.628723 512.305664,448.921051 
	C517.950867,448.921051 523.217590,448.921051 528.757080,448.921051 
	C528.757080,466.799438 528.757080,484.240570 528.757080,502.011780 
	C532.851624,502.011780 536.653015,502.011780 541.427551,502.011566 
M478.041687,623.489014 
	C478.041687,627.588806 478.041687,631.688599 478.041687,635.631348 
	C484.490967,635.631348 490.368561,635.631348 496.162292,635.631348 
	C496.162292,611.324158 496.162292,587.392395 496.162292,563.317993 
	C490.053497,563.317993 484.170959,563.317993 478.041687,563.317993 
	C478.041687,583.240784 478.041687,602.866150 478.041687,623.489014 
z"/>
<path fill="#FC0101" opacity="1.000000" stroke="none" 
	d="
M552.000183,389.119659 
	C505.204651,388.070496 458.900024,387.297180 412.619385,385.787750 
	C399.364502,385.355499 386.035522,383.541382 372.994202,381.038940 
	C351.409912,376.897247 337.454285,363.549194 331.777924,342.332611 
	C326.065765,320.982239 324.373291,298.975952 324.091980,277.011414 
	C323.712524,247.387009 323.876892,217.721481 325.074829,188.124893 
	C325.710815,172.411392 327.979523,156.576736 331.363617,141.204590 
	C336.750336,116.735443 354.914612,102.081497 379.775116,98.987732 
	C423.018555,93.606308 466.493286,92.645592 509.943634,92.624634 
	C556.408691,92.602226 602.888916,93.745438 649.332520,95.283882 
	C666.226440,95.843483 683.328491,97.674957 699.808044,101.314781 
	C721.482117,106.101891 734.541931,121.189316 738.887878,142.808243 
	C746.478638,180.568115 747.642212,218.894104 746.354492,257.224396 
	C745.567322,280.654816 743.301270,304.058044 741.020142,327.407074 
	C739.732483,340.588135 736.063110,353.179138 727.076538,363.660126 
	C716.158936,376.393402 701.777954,381.407959 685.727356,383.153412 
	C641.442871,387.969177 596.982178,388.760437 552.000183,389.119659 
M548.097900,209.465179 
	C529.784790,198.897079 511.471680,188.328964 492.709106,177.501480 
	C492.709106,220.192642 492.709106,261.727875 492.709106,304.103607 
	C529.401733,282.883362 565.386169,262.072693 602.257324,240.749222 
	C583.576111,229.984039 566.138428,219.935410 548.097900,209.465179 
z"/>
<path fill="#030303" opacity="1.000000" stroke="none" 
	d="
M654.846924,453.245453 
	C655.516602,453.605408 656.457275,453.807312 656.854126,453.432892 
	C666.781067,444.068085 679.932556,446.667755 685.162964,459.364319 
	C689.459045,469.792725 689.123169,480.466217 685.409485,491.049438 
	C681.632690,501.812378 667.349731,508.626678 654.468262,496.636597 
	C651.012390,505.575867 643.481323,500.785187 637.209473,502.239227 
	C637.209473,477.733612 637.209473,453.679840 637.209473,429.317535 
	C642.951843,429.317535 648.828552,429.317535 654.864502,429.317535 
	C654.864502,437.249695 654.864502,445.034271 654.846924,453.245453 
M655.076294,475.489532 
	C655.453613,478.267731 655.171875,481.398529 656.411316,483.715546 
	C657.451660,485.660248 660.194031,487.619202 662.316040,487.776764 
	C664.111938,487.910065 667.584045,485.628296 667.740051,484.144623 
	C668.364441,478.206726 668.359924,472.122406 667.711243,466.188110 
	C667.551697,464.728699 664.064392,462.616150 662.138550,462.649170 
	C660.163574,462.683044 657.429749,464.561066 656.473938,466.388275 
	C655.251099,468.725922 655.474854,471.820251 655.076294,475.489532 
z"/>
<path fill="#050505" opacity="1.000000" stroke="none" 
	d="
M588.812378,610.185669 
	C588.806641,618.949402 588.806641,627.236816 588.806641,635.764771 
	C582.450195,635.764771 576.554138,635.764771 570.440430,635.764771 
	C570.440430,618.276489 570.440430,601.011597 570.440430,583.731995 
	C579.429932,581.203247 583.526611,582.524109 586.983032,589.518005 
	C591.717407,583.802917 597.816711,581.621948 604.996460,581.977539 
	C614.452820,582.445862 621.435120,588.285706 621.835815,597.688843 
	C622.372620,610.286072 621.968689,622.923340 621.968689,635.776245 
	C616.025452,635.776245 610.267944,635.776245 603.890991,635.776245 
	C603.890991,627.209473 603.938477,618.622314 603.862610,610.036255 
	C603.839294,607.391541 604.090942,604.486694 603.099426,602.181519 
	C602.131470,599.930786 599.679321,596.697327 597.981445,596.758301 
	C595.376709,596.851746 592.050598,598.842773 590.532898,601.057861 
	C589.005615,603.286926 589.314026,606.773682 588.812378,610.185669 
z"/>
<path fill="#050505" opacity="1.000000" stroke="none" 
	d="
M469.900757,453.169434 
	C469.919495,462.316803 469.848541,470.983459 469.997589,479.646332 
	C470.064545,483.538391 470.406647,487.610229 475.552826,488.261292 
	C480.168060,488.845154 483.692780,486.263672 483.995392,480.559174 
	C484.540405,470.284241 484.149414,459.959656 484.149414,449.289001 
	C490.902069,449.289001 496.778717,449.289001 502.921204,449.289001 
	C502.921204,466.681793 502.921204,484.086090 502.921204,501.751190 
	C498.467743,501.751190 494.034973,501.751190 489.477478,501.751190 
	C488.629761,499.708252 487.764587,497.623260 486.662018,494.966156 
	C481.829071,501.259521 475.583923,503.325958 468.390900,502.945648 
	C458.998871,502.449097 452.400940,496.821075 451.970581,487.438324 
	C451.392395,474.832642 451.827271,462.180511 451.827271,448.927917 
	C457.029785,448.927917 462.303314,448.759186 467.544312,449.096375 
	C468.403229,449.151642 469.118896,451.434082 469.900757,453.169434 
z"/>
<path fill="#050505" opacity="1.000000" stroke="none" 
	d="
M624.167480,478.000061 
	C624.167480,486.142975 624.167480,493.785889 624.167480,501.726868 
	C619.520752,501.726868 615.098633,501.726868 610.510864,501.726868 
	C609.667175,499.750763 608.779175,497.670685 607.663452,495.057404 
	C602.669250,501.357910 596.299622,503.475616 588.900635,502.897888 
	C579.732422,502.182037 573.391235,496.658813 572.985291,487.466461 
	C572.428650,474.860809 572.846130,462.212158 572.846130,449.253357 
	C578.636719,449.253357 584.514465,449.253357 590.895203,449.253357 
	C590.895203,457.903900 590.875305,466.512573 590.907654,475.121094 
	C590.916992,477.616699 590.478943,480.344513 591.335388,482.541107 
	C592.179871,484.707031 594.068237,487.225433 596.101257,487.992981 
	C599.262817,489.186676 602.672546,487.781677 603.856323,484.353119 
	C605.026733,480.963409 605.706726,477.268829 605.831543,473.681183 
	C606.113403,465.574768 605.920166,457.451874 605.920166,449.135315 
	C612.100098,449.135315 617.855042,449.135315 624.167480,449.135315 
	C624.167480,458.647095 624.167480,468.073578 624.167480,478.000061 
z"/>
<path fill="#060606" opacity="1.000000" stroke="none" 
	d="
M435.583466,589.982178 
	C434.891174,596.225281 433.662903,602.180481 434.077667,608.018860 
	C434.791504,618.065918 441.624237,623.134399 451.587646,621.597290 
	C456.281342,620.873230 460.844818,619.304871 465.916534,618.003845 
	C465.916534,622.440552 466.079193,626.725281 465.801971,630.981262 
	C465.732819,632.043030 464.442505,633.550171 463.378693,633.940735 
	C453.241516,637.662659 442.907410,638.295776 432.648590,634.624084 
	C425.017090,631.892761 419.765381,626.364502 417.112091,618.753235 
	C413.508820,608.416870 413.167175,597.872192 416.752106,587.440002 
	C421.015930,575.032227 429.913269,568.268127 442.893982,566.832520 
	C451.857025,565.841309 460.387146,567.337402 468.784943,571.347351 
	C466.923401,576.171143 465.154999,580.753479 463.327972,585.487793 
	C453.420654,582.927429 443.004425,576.331726 435.583466,589.982178 
z"/>
<path fill="#050505" opacity="1.000000" stroke="none" 
	d="
M734.980469,502.071289 
	C727.157715,501.781525 719.598450,502.286987 712.414368,500.878723 
	C704.984924,499.422333 700.205505,493.803192 697.894836,486.482788 
	C695.356628,478.441833 695.580688,470.382050 698.541809,462.522827 
	C702.713318,451.450958 714.625244,445.881165 728.347839,448.344543 
	C739.951477,450.427551 746.126953,456.964752 747.263733,468.755554 
	C747.612061,472.368500 747.317749,476.043427 747.317749,480.297791 
	C736.682678,480.297791 725.963806,480.297791 715.201233,480.297791 
	C716.307678,490.731354 725.764648,492.572601 743.438843,486.390381 
	C745.821106,498.413300 745.225281,499.573395 734.980469,502.071289 
M730.287476,465.501617 
	C728.628540,461.249725 725.457581,459.755432 721.154175,460.772278 
	C717.033081,461.746063 715.488586,464.673645 715.424744,468.934570 
	C720.030273,468.934570 724.347168,469.052368 728.644287,468.814606 
	C729.333008,468.776489 729.933716,467.148285 730.287476,465.501617 
z"/>
<path fill="#050505" opacity="1.000000" stroke="none" 
	d="
M667.993042,614.342896 
	C662.059570,614.342896 656.624451,614.342896 651.128906,614.342896 
	C651.983337,620.802429 655.134094,623.997498 661.595642,623.755493 
	C667.625427,623.529541 673.610413,622.108704 679.886292,621.173462 
	C679.920715,621.953125 680.042603,623.520386 680.050537,625.088196 
	C680.098083,634.531189 680.130859,634.904663 670.339050,635.994629 
	C664.148621,636.683594 657.701843,636.782654 651.565063,635.855530 
	C641.315430,634.307068 634.251831,626.722717 633.007385,616.463806 
	C632.396179,611.424561 632.350891,606.120483 633.211792,601.137085 
	C635.489624,587.952087 645.886841,581.186951 661.512878,582.033813 
	C674.334351,582.728699 682.161133,590.288635 683.338623,603.370483 
	C683.648132,606.809021 683.385254,610.299194 683.385254,614.342896 
	C678.372070,614.342896 673.431641,614.342896 667.993042,614.342896 
M657.925049,594.542603 
	C653.427063,595.344666 651.597046,598.283691 651.305664,602.703125 
	C656.546692,602.703125 661.613892,602.703125 667.008606,602.703125 
	C666.356506,597.418335 663.900208,594.513062 657.925049,594.542603 
z"/>
<path fill="#060606" opacity="1.000000" stroke="none" 
	d="
M388.979584,483.837402 
	C388.674866,479.285400 387.866394,475.092590 388.271729,471.020599 
	C389.805420,455.613983 400.107788,447.390503 416.519501,448.014832 
	C430.552704,448.548615 440.438141,458.738129 440.977966,473.225616 
	C441.518433,487.730927 435.954437,497.487518 424.972839,501.290771 
	C408.857697,506.871948 394.565582,500.096161 388.979584,483.837402 
M422.215729,477.338074 
	C421.897583,473.888855 421.819733,470.395416 421.195068,467.002625 
	C420.541504,463.452728 417.945526,461.058075 414.455566,461.946777 
	C412.000610,462.571899 408.387115,464.885620 408.145630,466.804565 
	C407.397675,472.747803 407.630066,478.909607 408.355774,484.880341 
	C408.552399,486.498291 411.732208,488.654968 413.743774,488.897522 
	C415.754395,489.139954 418.825806,487.859680 419.967560,486.224365 
	C421.454498,484.094635 421.497833,480.957001 422.215729,477.338074 
z"/>
<path fill="#050505" opacity="1.000000" stroke="none" 
	d="
M556.534668,624.398254 
	C549.588074,635.293945 537.439514,639.553101 524.535278,635.871887 
	C513.887939,632.834595 507.197784,623.369507 506.895935,610.916077 
	C506.527832,595.729553 512.838379,585.766052 524.869324,582.991028 
	C535.128662,580.624573 545.056091,581.487000 552.599854,589.527161 
	C560.730957,598.193359 561.241028,608.861938 558.282532,619.886475 
	C557.898132,621.319031 557.251587,622.681213 556.534668,624.398254 
M536.638245,622.583191 
	C542.974182,616.450867 541.316650,608.930481 540.141296,601.582153 
	C539.501099,597.579773 536.930603,595.564575 532.750671,595.745728 
	C528.649963,595.923401 526.655090,598.622559 526.217529,602.097229 
	C525.682861,606.343628 525.564880,610.732117 525.983887,614.988464 
	C526.648743,621.743408 529.118469,623.473328 536.638245,622.583191 
z"/>
<path fill="#060606" opacity="1.000000" stroke="none" 
	d="
M363.200134,434.978241 
	C366.717957,434.210876 370.060638,433.657684 373.424896,433.442749 
	C376.569794,433.241852 379.737671,433.399780 383.613953,433.399780 
	C382.895081,435.077881 382.447540,436.393188 381.796997,437.598969 
	C375.960693,448.416534 369.905701,459.121948 364.339813,470.076172 
	C362.691803,473.319580 361.821106,477.213318 361.597778,480.870331 
	C361.174042,487.810394 361.475098,494.794678 361.475098,501.881256 
	C355.157959,501.881256 349.354614,501.881256 342.861633,501.881256 
	C342.861633,495.116333 343.139984,488.355530 342.747070,481.633911 
	C342.543121,478.144379 341.751709,474.422333 340.192322,471.325684 
	C333.931000,458.891937 327.265778,446.661591 320.260010,433.430878 
	C327.045349,433.430878 333.110046,433.291504 339.155090,433.573608 
	C340.116974,433.618500 341.274597,435.422119 341.857971,436.643646 
	C345.205811,443.653809 348.407745,450.733673 352.112549,458.773743 
	C356.024963,450.379364 359.529694,442.859711 363.200134,434.978241 
z"/>
<path fill="#060606" opacity="1.000000" stroke="none" 
	d="
M540.940979,502.011658 
	C536.653015,502.011780 532.851624,502.011780 528.757080,502.011780 
	C528.757080,484.240570 528.757080,466.799438 528.757080,448.921051 
	C523.217590,448.921051 517.950867,448.921051 512.305664,448.921051 
	C512.305664,443.628723 512.305664,438.766357 512.305664,433.657532 
	C529.340515,433.657532 546.391296,433.657532 563.684570,433.657532 
	C563.684570,438.657379 563.684570,443.397766 563.684570,448.531616 
	C558.242859,448.531616 552.974731,448.531616 547.233887,448.531616 
	C547.233887,466.455566 547.233887,483.997559 547.233887,502.011566 
	C544.986694,502.011566 543.207153,502.011566 540.940979,502.011658 
z"/>
<path fill="#020202" opacity="1.000000" stroke="none" 
	d="
M478.041687,622.990234 
	C478.041687,602.866150 478.041687,583.240784 478.041687,563.317993 
	C484.170959,563.317993 490.053497,563.317993 496.162292,563.317993 
	C496.162292,587.392395 496.162292,611.324158 496.162292,635.631348 
	C490.368561,635.631348 484.490967,635.631348 478.041687,635.631348 
	C478.041687,631.688599 478.041687,627.588806 478.041687,622.990234 
z"/>
<path fill="#FEF9F8" opacity="1.000000" stroke="none" 
	d="
M548.399292,209.675964 
	C566.138428,219.935410 583.576111,229.984039 602.257324,240.749222 
	C565.386169,262.072693 529.401733,282.883362 492.709106,304.103607 
	C492.709106,261.727875 492.709106,220.192642 492.709106,177.501480 
	C511.471680,188.328964 529.784790,198.897079 548.399292,209.675964 
z"/>
<path fill="#F6F6F6" opacity="1.000000" stroke="none" 
	d="
M655.075806,475.039001 
	C655.474854,471.820251 655.251099,468.725922 656.473938,466.388275 
	C657.429749,464.561066 660.163574,462.683044 662.138550,462.649170 
	C664.064392,462.616150 667.551697,464.728699 667.711243,466.188110 
	C668.359924,472.122406 668.364441,478.206726 667.740051,484.144623 
	C667.584045,485.628296 664.111938,487.910065 662.316040,487.776764 
	C660.194031,487.619202 657.451660,485.660248 656.411316,483.715546 
	C655.171875,481.398529 655.453613,478.267731 655.075806,475.039001 
z"/>
<path fill="#EFEFEF" opacity="1.000000" stroke="none" 
	d="
M730.431274,465.878357 
	C729.933716,467.148285 729.333008,468.776489 728.644287,468.814606 
	C724.347168,469.052368 720.030273,468.934570 715.424744,468.934570 
	C715.488586,464.673645 717.033081,461.746063 721.154175,460.772278 
	C725.457581,459.755432 728.628540,461.249725 730.431274,465.878357 
z"/>
<path fill="#EFEFEF" opacity="1.000000" stroke="none" 
	d="
M658.289551,594.463379 
	C663.900208,594.513062 666.356506,597.418335 667.008606,602.703125 
	C661.613892,602.703125 656.546692,602.703125 651.305664,602.703125 
	C651.597046,598.283691 653.427063,595.344666 658.289551,594.463379 
z"/>
<path fill="#FAFAFA" opacity="1.000000" stroke="none" 
	d="
M422.189056,477.795593 
	C421.497833,480.957001 421.454498,484.094635 419.967560,486.224365 
	C418.825806,487.859680 415.754395,489.139954 413.743774,488.897522 
	C411.732208,488.654968 408.552399,486.498291 408.355774,484.880341 
	C407.630066,478.909607 407.397675,472.747803 408.145630,466.804565 
	C408.387115,464.885620 412.000610,462.571899 414.455566,461.946777 
	C417.945526,461.058075 420.541504,463.452728 421.195068,467.002625 
	C421.819733,470.395416 421.897583,473.888855 422.189056,477.795593 
z"/>
<path fill="#F8F8F8" opacity="1.000000" stroke="none" 
	d="
M536.265015,622.745361 
	C529.118469,623.473328 526.648743,621.743408 525.983887,614.988464 
	C525.564880,610.732117 525.682861,606.343628 526.217529,602.097229 
	C526.655090,598.622559 528.649963,595.923401 532.750671,595.745728 
	C536.930603,595.564575 539.501099,597.579773 540.141296,601.582153 
	C541.316650,608.930481 542.974182,616.450867 536.265015,622.745361 
z"/>
</svg>